<?xml version="1.0" encoding="UTF-8" standalone="no"?>
<!DOCTYPE svg PUBLIC "-//W3C//DTD SVG 1.1//EN"
 "http://www.w3.org/Graphics/SVG/1.1/DTD/svg11.dtd">
<!-- Generated by graphviz version 14.1.3 (0)
 -->
<!-- Pages: 1 -->
<svg width="360pt" height="149pt"
 viewBox="0.00 0.00 360.00 149.00" xmlns="http://www.w3.org/2000/svg" xmlns:xlink="http://www.w3.org/1999/xlink">
<g id="graph0" class="graph" transform="scale(0.41046 0.41046) rotate(0) translate(4 359.25)">
<polygon fill="white" stroke="none" points="-4,4 -4,-359.25 873.06,-359.25 873.06,4 -4,4"/>
<!-- 11100 -->
<g id="node1" class="node">
<title>11100</title>
<ellipse fill="none" stroke="black" cx="42.79" cy="-183" rx="42.79" ry="18"/>
<text xml:space="preserve" text-anchor="middle" x="42.79" y="-178.32" font-family="Times,serif" font-size="14.00">11100</text>
</g>
<!-- 11100&#45;&gt;11100 -->
<g id="edge1" class="edge">
<title>11100&#45;&gt;11100</title>
<path fill="none" stroke="black" d="M31.05,-200.78C29.06,-210.31 32.97,-219 42.79,-219 48.31,-219 51.97,-216.25 53.75,-212.15"/>
<polygon fill="black" stroke="black" points="57.24,-212.51 54.42,-202.29 50.25,-212.03 57.24,-212.51"/>
<text xml:space="preserve" text-anchor="middle" x="42.79" y="-222.95" font-family="Times,serif" font-size="14.00">3</text>
</g>
<!-- 11010 -->
<g id="node2" class="node">
<title>11010</title>
<ellipse fill="none" stroke="black" cx="303.95" cy="-105" rx="42.79" ry="18"/>
<text xml:space="preserve" text-anchor="middle" x="303.95" y="-100.33" font-family="Times,serif" font-size="14.00">11010</text>
</g>
<!-- 11100&#45;&gt;11010 -->
<g id="edge2" class="edge">
<title>11100&#45;&gt;11010</title>
<path fill="none" stroke="black" d="M68.42,-168.11C85.36,-158.45 108.68,-146.31 130.58,-138.75 169.94,-125.16 216.36,-116.47 251.11,-111.31"/>
<polygon fill="black" stroke="black" points="251.51,-114.79 260.92,-109.91 250.52,-107.86 251.51,-114.79"/>
<text xml:space="preserve" text-anchor="middle" x="173.37" y="-142.7" font-family="Times,serif" font-size="14.00">4</text>
</g>
<!-- 11001 -->
<g id="node3" class="node">
<title>11001</title>
<ellipse fill="none" stroke="black" cx="173.37" cy="-183" rx="42.79" ry="18"/>
<text xml:space="preserve" text-anchor="middle" x="173.37" y="-178.32" font-family="Times,serif" font-size="14.00">11001</text>
</g>
<!-- 11100&#45;&gt;11001 -->
<g id="edge3" class="edge">
<title>11100&#45;&gt;11001</title>
<path fill="none" stroke="black" d="M85.89,-183C96.44,-183 107.89,-183 118.91,-183"/>
<polygon fill="black" stroke="black" points="118.66,-186.5 128.66,-183 118.66,-179.5 118.66,-186.5"/>
<text xml:space="preserve" text-anchor="middle" x="108.08" y="-186.95" font-family="Times,serif" font-size="14.00">5</text>
</g>
<!-- 11010&#45;&gt;11100 -->
<g id="edge4" class="edge">
<title>11010&#45;&gt;11100</title>
<path fill="none" stroke="black" d="M268.43,-94.64C232.53,-85.77 175.41,-77.11 130.58,-95.75 101.29,-107.93 76.78,-135.33 61.36,-156.2"/>
<polygon fill="black" stroke="black" points="58.54,-154.12 55.61,-164.31 64.25,-158.18 58.54,-154.12"/>
<text xml:space="preserve" text-anchor="middle" x="173.37" y="-99.7" font-family="Times,serif" font-size="14.00">2</text>
</g>
<!-- 10110 -->
<g id="node4" class="node">
<title>10110</title>
<ellipse fill="none" stroke="black" cx="695.69" cy="-159" rx="42.79" ry="18"/>
<text xml:space="preserve" text-anchor="middle" x="695.69" y="-154.32" font-family="Times,serif" font-size="14.00">10110</text>
</g>
<!-- 11010&#45;&gt;10110 -->
<g id="edge5" class="edge">
<title>11010&#45;&gt;10110</title>
<path fill="none" stroke="black" d="M344.82,-111.08C351.47,-112.07 358.3,-113.08 364.74,-114 417.31,-121.54 564.35,-141.43 643.2,-152.07"/>
<polygon fill="black" stroke="black" points="642.44,-155.5 652.82,-153.36 643.38,-148.56 642.44,-155.5"/>
<text xml:space="preserve" text-anchor="middle" x="499.82" y="-136.92" font-family="Times,serif" font-size="14.00">4</text>
</g>
<!-- 10101 -->
<g id="node5" class="node">
<title>10101</title>
<ellipse fill="none" stroke="black" cx="434.53" cy="-78" rx="42.79" ry="18"/>
<text xml:space="preserve" text-anchor="middle" x="434.53" y="-73.33" font-family="Times,serif" font-size="14.00">10101</text>
</g>
<!-- 11010&#45;&gt;10101 -->
<g id="edge6" class="edge">
<title>11010&#45;&gt;10101</title>
<path fill="none" stroke="black" d="M323.69,-88.59C334.8,-79.96 349.63,-70.27 364.74,-65.75 372.98,-63.29 381.94,-63.13 390.58,-64.19"/>
<polygon fill="black" stroke="black" points="389.72,-67.59 400.18,-65.92 390.96,-60.7 389.72,-67.59"/>
<text xml:space="preserve" text-anchor="middle" x="369.24" y="-69.7" font-family="Times,serif" font-size="14.00">5</text>
</g>
<!-- 11001&#45;&gt;11010 -->
<g id="edge7" class="edge">
<title>11001&#45;&gt;11010</title>
<path fill="none" stroke="black" d="M198.86,-168.15C218.7,-156.11 246.88,-139.02 268.91,-125.65"/>
<polygon fill="black" stroke="black" points="270.53,-128.76 277.26,-120.58 266.9,-122.78 270.53,-128.76"/>
<text xml:space="preserve" text-anchor="middle" x="238.66" y="-150.29" font-family="Times,serif" font-size="14.00">2</text>
</g>
<!-- 11001&#45;&gt;10110 -->
<g id="edge8" class="edge">
<title>11001&#45;&gt;10110</title>
<path fill="none" stroke="black" d="M216.07,-181.08C309.88,-176.75 537.43,-166.25 641.35,-161.46"/>
<polygon fill="black" stroke="black" points="641.45,-164.96 651.28,-161 641.13,-157.97 641.45,-164.96"/>
<text xml:space="preserve" text-anchor="middle" x="434.53" y="-176.85" font-family="Times,serif" font-size="14.00">3</text>
</g>
<!-- 10011 -->
<g id="node6" class="node">
<title>10011</title>
<ellipse fill="none" stroke="black" cx="565.11" cy="-232" rx="42.79" ry="18"/>
<text xml:space="preserve" text-anchor="middle" x="565.11" y="-227.32" font-family="Times,serif" font-size="14.00">10011</text>
</g>
<!-- 11001&#45;&gt;10011 -->
<g id="edge9" class="edge">
<title>11001&#45;&gt;10011</title>
<path fill="none" stroke="black" d="M210.59,-192.24C218.33,-194 226.49,-195.7 234.16,-197 331.27,-213.45 445.85,-223.54 511.24,-228.43"/>
<polygon fill="black" stroke="black" points="510.74,-231.9 520.97,-229.14 511.25,-224.92 510.74,-231.9"/>
<text xml:space="preserve" text-anchor="middle" x="369.24" y="-219.75" font-family="Times,serif" font-size="14.00">5</text>
</g>
<!-- 10110&#45;&gt;11100 -->
<g id="edge10" class="edge">
<title>10110&#45;&gt;11100</title>
<path fill="none" stroke="black" d="M667.22,-172.81C661.89,-176.5 656.77,-180.91 652.9,-186 636.59,-207.5 650.83,-222.21 634.9,-244 612.9,-274.1 603.39,-292 566.11,-292 172.37,-292 172.37,-292 172.37,-292 121.72,-292 80.78,-242.17 59.57,-209.89"/>
<polygon fill="black" stroke="black" points="62.75,-208.37 54.45,-201.79 56.84,-212.11 62.75,-208.37"/>
<text xml:space="preserve" text-anchor="middle" x="369.24" y="-295.95" font-family="Times,serif" font-size="14.00">1</text>
</g>
<!-- 01110 -->
<g id="node7" class="node">
<title>01110</title>
<ellipse fill="none" stroke="black" cx="826.27" cy="-213" rx="42.79" ry="18"/>
<text xml:space="preserve" text-anchor="middle" x="826.27" y="-208.32" font-family="Times,serif" font-size="14.00">01110</text>
</g>
<!-- 10110&#45;&gt;01110 -->
<g id="edge11" class="edge">
<title>10110&#45;&gt;01110</title>
<path fill="none" stroke="black" d="M726.84,-171.66C744.09,-178.91 765.96,-188.09 784.7,-195.96"/>
<polygon fill="black" stroke="black" points="783.35,-199.19 793.92,-199.83 786.06,-192.73 783.35,-199.19"/>
<text xml:space="preserve" text-anchor="middle" x="760.98" y="-191.57" font-family="Times,serif" font-size="14.00">4</text>
</g>
<!-- 01101 -->
<g id="node8" class="node">
<title>01101</title>
<ellipse fill="none" stroke="black" cx="826.27" cy="-47" rx="42.79" ry="18"/>
<text xml:space="preserve" text-anchor="middle" x="826.27" y="-42.33" font-family="Times,serif" font-size="14.00">01101</text>
</g>
<!-- 10110&#45;&gt;01101 -->
<g id="edge12" class="edge">
<title>10110&#45;&gt;01101</title>
<path fill="none" stroke="black" d="M715.39,-142.71C737.1,-123.8 773.11,-92.44 797.95,-70.8"/>
<polygon fill="black" stroke="black" points="800.17,-73.51 805.41,-64.3 795.57,-68.23 800.17,-73.51"/>
<text xml:space="preserve" text-anchor="middle" x="760.98" y="-110.31" font-family="Times,serif" font-size="14.00">5</text>
</g>
<!-- 10101&#45;&gt;11010 -->
<g id="edge13" class="edge">
<title>10101&#45;&gt;11010</title>
<path fill="none" stroke="black" d="M395.92,-85.9C382.73,-88.67 367.73,-91.82 353.76,-94.75"/>
<polygon fill="black" stroke="black" points="353.38,-91.25 344.32,-96.73 354.82,-98.1 353.38,-91.25"/>
<text xml:space="preserve" text-anchor="middle" x="369.24" y="-96.26" font-family="Times,serif" font-size="14.00">1</text>
</g>
<!-- 10101&#45;&gt;01110 -->
<g id="edge14" class="edge">
<title>10101&#45;&gt;01110</title>
<path fill="none" stroke="black" d="M471.15,-68.2C536.76,-52.45 677.98,-29.57 765.48,-96 794.1,-117.72 810.14,-157 818.24,-184.01"/>
<polygon fill="black" stroke="black" points="814.77,-184.61 820.83,-193.29 821.51,-182.72 814.77,-184.61"/>
<text xml:space="preserve" text-anchor="middle" x="630.4" y="-56.09" font-family="Times,serif" font-size="14.00">3</text>
</g>
<!-- 01011 -->
<g id="node9" class="node">
<title>01011</title>
<ellipse fill="none" stroke="black" cx="565.11" cy="-91" rx="42.79" ry="18"/>
<text xml:space="preserve" text-anchor="middle" x="565.11" y="-86.33" font-family="Times,serif" font-size="14.00">01011</text>
</g>
<!-- 10101&#45;&gt;01011 -->
<g id="edge15" class="edge">
<title>10101&#45;&gt;01011</title>
<path fill="none" stroke="black" d="M476.57,-82.15C487.7,-83.27 499.91,-84.51 511.59,-85.69"/>
<polygon fill="black" stroke="black" points="511.22,-89.17 521.52,-86.69 511.92,-82.21 511.22,-89.17"/>
<text xml:space="preserve" text-anchor="middle" x="499.82" y="-88.84" font-family="Times,serif" font-size="14.00">5</text>
</g>
<!-- 10011&#45;&gt;10110 -->
<g id="edge16" class="edge">
<title>10011&#45;&gt;10110</title>
<path fill="none" stroke="black" d="M591.52,-217.58C610.98,-206.53 638.05,-191.16 659.58,-178.93"/>
<polygon fill="black" stroke="black" points="661.06,-182.12 668.03,-174.14 657.6,-176.03 661.06,-182.12"/>
<text xml:space="preserve" text-anchor="middle" x="630.4" y="-201.64" font-family="Times,serif" font-size="14.00">1</text>
</g>
<!-- 10011&#45;&gt;01110 -->
<g id="edge17" class="edge">
<title>10011&#45;&gt;01110</title>
<path fill="none" stroke="black" d="M603.26,-240.64C610.72,-242.04 618.53,-243.27 625.9,-244 687.79,-250.15 705.68,-251.08 765.48,-234 771.09,-232.4 776.94,-230.56 782.69,-228.65"/>
<polygon fill="black" stroke="black" points="783.78,-231.98 792.11,-225.43 781.51,-225.35 783.78,-231.98"/>
<text xml:space="preserve" text-anchor="middle" x="695.69" y="-252.01" font-family="Times,serif" font-size="14.00">2</text>
</g>
<!-- 00111 -->
<g id="node10" class="node">
<title>00111</title>
<ellipse fill="none" stroke="black" cx="695.69" cy="-213" rx="42.79" ry="18"/>
<text xml:space="preserve" text-anchor="middle" x="695.69" y="-208.32" font-family="Times,serif" font-size="14.00">00111</text>
</g>
<!-- 10011&#45;&gt;00111 -->
<g id="edge18" class="edge">
<title>10011&#45;&gt;00111</title>
<path fill="none" stroke="black" d="M606.09,-226.09C617.94,-224.34 631.09,-222.4 643.55,-220.56"/>
<polygon fill="black" stroke="black" points="643.86,-224.05 653.24,-219.13 642.84,-217.12 643.86,-224.05"/>
<text xml:space="preserve" text-anchor="middle" x="630.4" y="-227.02" font-family="Times,serif" font-size="14.00">5</text>
</g>
<!-- 01110&#45;&gt;11100 -->
<g id="edge19" class="edge">
<title>01110&#45;&gt;11100</title>
<path fill="none" stroke="black" d="M817.19,-230.91C800.23,-265.47 757.4,-338 696.69,-338 172.37,-338 172.37,-338 172.37,-338 107.56,-338 69.19,-256.73 52.95,-211.89"/>
<polygon fill="black" stroke="black" points="56.29,-210.82 49.71,-202.51 49.67,-213.11 56.29,-210.82"/>
<text xml:space="preserve" text-anchor="middle" x="434.53" y="-341.95" font-family="Times,serif" font-size="14.00">0</text>
</g>
<!-- 01101&#45;&gt;11010 -->
<g id="edge20" class="edge">
<title>01101&#45;&gt;11010</title>
<path fill="none" stroke="black" d="M800.63,-32.13C775.44,-18.36 734.72,0 696.69,0 433.53,0 433.53,0 433.53,0 384.38,0 343.65,-46.6 321.94,-77.71"/>
<polygon fill="black" stroke="black" points="319.09,-75.68 316.41,-85.93 324.9,-79.58 319.09,-75.68"/>
<text xml:space="preserve" text-anchor="middle" x="565.11" y="-3.95" font-family="Times,serif" font-size="14.00">0</text>
</g>
<!-- 01011&#45;&gt;10110 -->
<g id="edge21" class="edge">
<title>01011&#45;&gt;10110</title>
<path fill="none" stroke="black" d="M606.59,-96.06C616.2,-98.23 626.19,-101.33 634.9,-105.75 648.56,-112.68 661.53,-123.5 671.88,-133.59"/>
<polygon fill="black" stroke="black" points="669.36,-136.01 678.86,-140.7 674.36,-131.11 669.36,-136.01"/>
<text xml:space="preserve" text-anchor="middle" x="630.4" y="-109.7" font-family="Times,serif" font-size="14.00">0</text>
</g>
<!-- 00111&#45;&gt;01110 -->
<g id="edge22" class="edge">
<title>00111&#45;&gt;01110</title>
<path fill="none" stroke="black" d="M738.8,-213C749.34,-213 760.79,-213 771.81,-213"/>
<polygon fill="black" stroke="black" points="771.56,-216.5 781.56,-213 771.56,-209.5 771.56,-216.5"/>
<text xml:space="preserve" text-anchor="middle" x="760.98" y="-216.95" font-family="Times,serif" font-size="14.00">0</text>
</g>
</g>
</svg>
